HIERARCHY
ROOT root
{
	OFFSET	0	13.1	24.9
	CHANNELS 6  Xposition Yposition Zposition Xrotation Yrotation Zrotation
	JOINT spine_1
	{
		OFFSET	0	9.99999	0
		CHANNELS 3  Xrotation Yrotation Zrotation
		JOINT spine_2
		{
			OFFSET	0	112	-10
			CHANNELS 3  Xrotation Yrotation Zrotation
			JOINT spine_3
			{
				OFFSET	0	206.5	19.3
				CHANNELS 3  Xrotation Yrotation Zrotation
				JOINT spine_4
				{
					OFFSET	0	110.4	14.6
					CHANNELS 3  Xrotation Yrotation Zrotation
					JOINT neck_1
					{
						OFFSET	0	71.8	-50.3
						CHANNELS 3  Xrotation Yrotation Zrotation
						JOINT neck_2
						{
							OFFSET	0	86.2	-25.8
							CHANNELS 3  Xrotation Yrotation Zrotation
							JOINT head_ee
							{
								OFFSET	0	179.8	-8.7
								CHANNELS 3  Xrotation Yrotation Zrotation
								End Site
								{
									OFFSET	1	0	0
								}
							}
						}
					}
					JOINT left_clavicle
					{
						OFFSET	-43.2	22.4	-70.8
						CHANNELS 3  Xrotation Yrotation Zrotation
						JOINT left_shoulder
						{
							OFFSET	-93.9	-5.79999	48.7
							CHANNELS 3  Xrotation Yrotation Zrotation
							JOINT left_elbow
							{
								OFFSET	-291.4	-30.8	15.2
								CHANNELS 3  Xrotation Yrotation Zrotation
								JOINT left_lowarm_twist
								{
									OFFSET	-110.7	-3.89999	13.6
									CHANNELS 3  Xrotation Yrotation Zrotation
									JOINT left_hand
									{
										OFFSET	-110.7	-3.89999	13.6
										CHANNELS 3  Xrotation Yrotation Zrotation
										JOINT left_ee
										{
											OFFSET	-80.8	-5.10001	12.1
											CHANNELS 3  Xrotation Yrotation Zrotation
											End Site
											{
												OFFSET	1	0	0
											}
										}
									}
								}
							}
						}
					}
					JOINT right_clavicle
					{
						OFFSET	43.2	22.4	-70.8
						CHANNELS 3  Xrotation Yrotation Zrotation
						JOINT right_shoulder
						{
							OFFSET	93.9	-5.79999	48.7
							CHANNELS 3  Xrotation Yrotation Zrotation
							JOINT right_elbow
							{
								OFFSET	291.4	-30.8	15.2
								CHANNELS 3  Xrotation Yrotation Zrotation
								JOINT right_lowarm_twist
								{
									OFFSET	110.7	-3.89999	13.6
									CHANNELS 3  Xrotation Yrotation Zrotation
									JOINT right_hand
									{
										OFFSET	110.7	-3.89999	13.6
										CHANNELS 3  Xrotation Yrotation Zrotation
										JOINT right_ee
										{
											OFFSET	80.8	-5.10001	12.1
											CHANNELS 3  Xrotation Yrotation Zrotation
											End Site
											{
												OFFSET	1	0	0
											}
										}
									}
								}
							}
						}
					}
				}
			}
		}
	}
	JOINT left_hip
	{
		OFFSET	-82.8	-127.5	0.300001
		CHANNELS 3  Xrotation Yrotation Zrotation
		JOINT left_knee
		{
			OFFSET	-28.2	-396.7	2.2
			CHANNELS 3  Xrotation Yrotation Zrotation
			JOINT left_ankle
			{
				OFFSET	-11.7	-411.3	35.4
				CHANNELS 3  Xrotation Yrotation Zrotation
				JOINT left_toes
				{
					OFFSET	0	-60	-88.6
					CHANNELS 3  Xrotation Yrotation Zrotation
					JOINT left_foot_ee
					{
						OFFSET	-22.5	-16.5	-42.2
						CHANNELS 3  Xrotation Yrotation Zrotation
						End Site
						{
							OFFSET	1	0	0
						}
					}
				}
			}
		}
	}
	JOINT right_hip
	{
		OFFSET	82.8	-127.5	0.300001
		CHANNELS 3  Xrotation Yrotation Zrotation
		JOINT right_knee
		{
			OFFSET	28.2	-396.7	2.2
			CHANNELS 3  Xrotation Yrotation Zrotation
			JOINT right_ankle
			{
				OFFSET	11.7	-411.3	35.4
				CHANNELS 3  Xrotation Yrotation Zrotation
				JOINT right_toes
				{
					OFFSET	0	-60	-88.6
					CHANNELS 3  Xrotation Yrotation Zrotation
					JOINT right_foot_ee
					{
						OFFSET	22.5	-16.5	-42.2
						CHANNELS 3  Xrotation Yrotation Zrotation
						End Site
						{
							OFFSET	1	0	0
						}
					}
				}
			}
		}
	}
}
MOTION
Frames: 16
Frame Time: 0.02
3574.42 741.953 -1474.73 -17.7555398427 80.0687651491 6.58150949174 1.57843 1.15511 5.71927 1.59627 0.789464 5.78089 1.67794 -0.272191 5.82804 1.63116 0.650073 5.79816 -9.92686 10.2166 -6.84673 -9.95111 23.8339 -4.12749 -0.0 0.0 -0.0 -6.43534 23.3495 -6.20777 0.302575 -27.9831 55.1793 3.75464 -61.7188 2.24401 -11.3756 -0.536753 1.34937 -3.20124 17.53 -12.4259 -0.0 0.0 -0.0 10.3296 4.56403 -20.5168 -17.9717 34.0978 -73.3909 0.209355 5.92104 -0.0108272 19.135 -0.272758 2.41777 -1.61393 14.8657 17.4007 0.0 0.0 0.0 -6.86538 27.3253 9.72279 0.257115 -0.0106728 -0.0380128 27.0309 -4.30652 -3.62588 -28.2225 0.0 0.0 -0.0 0.0 -0.0 1.54295 5.36547 8.73517 -11.7886 -0.303107 -1.78057 37.8473 24.2116 5.352 -21.2044 0.0 0.0 0.0 0.0 0.0 
3574.42 741.953 -1474.73 -16.2757623281 79.1835515926 5.07718893249 1.57843 1.15511 5.71927 1.59627 0.789464 5.78089 1.67794 -0.272191 5.82804 1.63116 0.650073 5.79816 -9.92686 10.2166 -6.84673 -9.95111 23.8339 -4.12749 -0.0 0.0 -0.0 -6.43534 23.3495 -6.20777 0.302575 -27.9831 55.1793 3.75464 -61.7188 2.24401 -11.3756 -0.536753 1.34937 -3.20124 17.53 -12.4259 -0.0 0.0 -0.0 10.3296 4.56403 -20.5168 -17.9717 34.0978 -73.3909 0.209355 5.92104 -0.0108272 19.135 -0.272758 2.41777 -1.61393 14.8657 17.4007 0.0 0.0 0.0 -6.86538 27.3253 9.72279 0.257115 -0.0106728 -0.0380128 27.0309 -4.30652 -3.62588 -28.2225 0.0 0.0 -0.0 0.0 -0.0 1.54295 5.36547 8.73517 -11.7886 -0.303107 -1.78057 37.8473 24.2116 5.352 -21.2044 0.0 0.0 0.0 0.0 0.0 
3574.42 741.953 -1474.73 -14.5873204304 77.9462691573 3.35465809789 1.57843 1.15511 5.71927 1.59627 0.789464 5.78089 1.67794 -0.272191 5.82804 1.63116 0.650073 5.79816 -9.92686 10.2166 -6.84673 -9.95111 23.8339 -4.12749 -0.0 0.0 -0.0 -6.43534 23.3495 -6.20777 0.302575 -27.9831 55.1793 3.75464 -61.7188 2.24401 -11.3756 -0.536753 1.34937 -3.20124 17.53 -12.4259 -0.0 0.0 -0.0 10.3296 4.56403 -20.5168 -17.9717 34.0978 -73.3909 0.209355 5.92104 -0.0108272 19.135 -0.272758 2.41777 -1.61393 14.8657 17.4007 0.0 0.0 0.0 -6.86538 27.3253 9.72279 0.257115 -0.0106728 -0.0380128 27.0309 -4.30652 -3.62588 -28.2225 0.0 0.0 -0.0 0.0 -0.0 1.54295 5.36547 8.73517 -11.7886 -0.303107 -1.78057 37.8473 24.2116 5.352 -21.2044 0.0 0.0 0.0 0.0 0.0 
3574.42 741.953 -1474.73 -13.2099555392 76.6939024454 1.94294943222 1.57843 1.15511 5.71927 1.59627 0.789464 5.78089 1.67794 -0.272191 5.82804 1.63116 0.650073 5.79816 -9.92686 10.2166 -6.84673 -9.95111 23.8339 -4.12749 -0.0 0.0 -0.0 -6.43534 23.3495 -6.20777 0.302575 -27.9831 55.1793 3.75464 -61.7188 2.24401 -11.3756 -0.536753 1.34937 -3.20124 17.53 -12.4259 -0.0 0.0 -0.0 10.3296 4.56403 -20.5168 -17.9717 34.0978 -73.3909 0.209355 5.92104 -0.0108272 19.135 -0.272758 2.41777 -1.61393 14.8657 17.4007 0.0 0.0 0.0 -6.86538 27.3253 9.72279 0.257115 -0.0106728 -0.0380128 27.0309 -4.30652 -3.62588 -28.2225 0.0 0.0 -0.0 0.0 -0.0 1.54295 5.36547 8.73517 -11.7886 -0.303107 -1.78057 37.8473 24.2116 5.352 -21.2044 0.0 0.0 0.0 0.0 0.0 
3574.42 741.953 -1474.73 -11.9279875429 75.2577496341 0.621703826464 1.57843 1.15511 5.71927 1.59627 0.789464 5.78089 1.67794 -0.272191 5.82804 1.63116 0.650073 5.79816 -9.92686 10.2166 -6.84673 -9.95111 23.8339 -4.12749 -0.0 0.0 -0.0 -6.43534 23.3495 -6.20777 0.302575 -27.9831 55.1793 3.75464 -61.7188 2.24401 -11.3756 -0.536753 1.34937 -3.20124 17.53 -12.4259 -0.0 0.0 -0.0 10.3296 4.56403 -20.5168 -17.9717 34.0978 -73.3909 0.209355 5.92104 -0.0108272 19.135 -0.272758 2.41777 -1.61393 14.8657 17.4007 0.0 0.0 0.0 -6.86538 27.3253 9.72279 0.257115 -0.0106728 -0.0380128 27.0309 -4.30652 -3.62588 -28.2225 0.0 0.0 -0.0 0.0 -0.0 1.54295 5.36547 8.73517 -11.7886 -0.303107 -1.78057 37.8473 24.2116 5.352 -21.2044 0.0 0.0 0.0 0.0 0.0 
3559.71969462 740.079 -1476.22064477 -10.1734620899 74.8052230739 -1.80614167916 1.5417 1.0909 5.87168 1.56058 0.715734 5.92892 1.6368 -0.376327 5.95999 1.58772 0.567959 5.94484 -11.8822 9.91254 -8.00324 -11.9948 23.925 -4.89526 -0.0 0.0 -0.0 -6.64441 23.7975 -6.36414 -0.859276 -28.258 54.7127 3.86015 -62.3752 2.33721 -11.1852 -0.525589 1.32772 -3.17597 17.1009 -12.5091 -0.0 0.0 -0.0 10.2489 2.55653 -20.2839 -17.2401 33.9086 -73.0435 0.217434 6.14779 -0.0116764 19.204 -0.272272 2.42656 -1.64922 14.066 17.3117 0.0 0.0 0.0 -6.93896 25.7668 9.66287 -0.792852 0.0318336 0.117508 27.3449 -4.66058 -3.66563 -28.3247 0.0 0.0 -0.0 0.0 -0.0 -0.190401 5.52266 9.25027 -11.8687 -0.303905 -1.79283 38.0033 22.9116 5.30145 -21.2657 0.0 0.0 0.0 0.0 0.0 
3559.77469111 740.079 -1476.68855238 -9.112745464 73.0039807065 -2.90999419891 1.5417 1.0909 5.87168 1.56058 0.715734 5.92892 1.6368 -0.376327 5.95999 1.58772 0.567959 5.94484 -11.8822 9.91254 -8.00324 -11.9948 23.925 -4.89526 -0.0 0.0 -0.0 -6.64441 23.7975 -6.36414 -0.859276 -28.258 54.7127 3.86015 -62.3752 2.33721 -11.1852 -0.525589 1.32772 -3.17597 17.1009 -12.5091 -0.0 0.0 -0.0 10.2489 2.55653 -20.2839 -17.2401 33.9086 -73.0435 0.217434 6.14779 -0.0116764 19.204 -0.272272 2.42656 -1.64922 14.066 17.3117 0.0 0.0 0.0 -6.93896 25.7668 9.66287 -0.792852 0.0318336 0.117508 27.3449 -4.66058 -3.66563 -28.3247 0.0 0.0 -0.0 0.0 -0.0 -0.190401 5.52266 9.25027 -11.8687 -0.303905 -1.79283 38.0033 22.9116 5.30145 -21.2657 0.0 0.0 0.0 0.0 0.0 
3559.85548434 740.079 -1477.21915318 -8.15256023419 70.9461391677 -3.91957029718 1.5417 1.0909 5.87168 1.56058 0.715734 5.92892 1.6368 -0.376327 5.95999 1.58772 0.567959 5.94484 -11.8822 9.91254 -8.00324 -11.9948 23.925 -4.89526 -0.0 0.0 -0.0 -6.64441 23.7975 -6.36414 -0.859276 -28.258 54.7127 3.86015 -62.3752 2.33721 -11.1852 -0.525589 1.32772 -3.17597 17.1009 -12.5091 -0.0 0.0 -0.0 10.2489 2.55653 -20.2839 -17.2401 33.9086 -73.0435 0.217434 6.14779 -0.0116764 19.204 -0.272272 2.42656 -1.64922 14.066 17.3117 0.0 0.0 0.0 -6.93896 25.7668 9.66287 -0.792852 0.0318336 0.117508 27.3449 -4.66058 -3.66563 -28.3247 0.0 0.0 -0.0 0.0 -0.0 -0.190401 5.52266 9.25027 -11.8687 -0.303905 -1.79283 38.0033 22.9116 5.30145 -21.2657 0.0 0.0 0.0 0.0 0.0 
3559.95307633 740.079 -1477.73484931 -7.39847031619 68.9294868985 -4.72224778311 1.5417 1.0909 5.87168 1.56058 0.715734 5.92892 1.6368 -0.376327 5.95999 1.58772 0.567959 5.94484 -11.8822 9.91254 -8.00324 -11.9948 23.925 -4.89526 -0.0 0.0 -0.0 -6.64441 23.7975 -6.36414 -0.859276 -28.258 54.7127 3.86015 -62.3752 2.33721 -11.1852 -0.525589 1.32772 -3.17597 17.1009 -12.5091 -0.0 0.0 -0.0 10.2489 2.55653 -20.2839 -17.2401 33.9086 -73.0435 0.217434 6.14779 -0.0116764 19.204 -0.272272 2.42656 -1.64922 14.066 17.3117 0.0 0.0 0.0 -6.93896 25.7668 9.66287 -0.792852 0.0318336 0.117508 27.3449 -4.66058 -3.66563 -28.3247 0.0 0.0 -0.0 0.0 -0.0 -0.190401 5.52266 9.25027 -11.8687 -0.303905 -1.79283 38.0033 22.9116 5.30145 -21.2657 0.0 0.0 0.0 0.0 0.0 
3560.16257122 740.079 -1478.60901078 -6.40182831733 65.4683295751 -5.80287561967 1.5417 1.0909 5.87168 1.56058 0.715734 5.92892 1.6368 -0.376327 5.95999 1.58772 0.567959 5.94484 -11.8822 9.91254 -8.00324 -11.9948 23.925 -4.89526 -0.0 0.0 -0.0 -6.64441 23.7975 -6.36414 -0.859276 -28.258 54.7127 3.86015 -62.3752 2.33721 -11.1852 -0.525589 1.32772 -3.17597 17.1009 -12.5091 -0.0 0.0 -0.0 10.2489 2.55653 -20.2839 -17.2401 33.9086 -73.0435 0.217434 6.14779 -0.0116764 19.204 -0.272272 2.42656 -1.64922 14.066 17.3117 0.0 0.0 0.0 -6.93896 25.7668 9.66287 -0.792852 0.0318336 0.117508 27.3449 -4.66058 -3.66563 -28.3247 0.0 0.0 -0.0 0.0 -0.0 -0.190401 5.52266 9.25027 -11.8687 -0.303905 -1.79283 38.0033 22.9116 5.30145 -21.2657 0.0 0.0 0.0 0.0 0.0 
3550.52991635 737.508 -1481.31204399 -3.94321070304 61.9100465003 -8.84402909306 1.26771 1.22774 6.00274 1.28735 0.844006 6.06836 1.38072 -0.302427 6.11911 1.32913 0.665935 6.09039 -12.2171 9.98428 -7.60299 -12.3698 23.7834 -4.40769 -0.0 0.0 -0.0 -6.70379 23.7747 -6.45466 -1.38663 -28.3001 54.3541 3.92788 -62.782 2.39733 -10.7026 -0.497608 1.27268 -3.04577 17.0563 -11.7198 -0.0 0.0 -0.0 10.2409 3.32537 -20.2931 -17.3858 33.366 -73.471 0.187772 5.31431 -0.0087144 19.4837 -0.27019 2.46223 -1.68638 13.7252 17.4286 0.0 0.0 0.0 -6.38396 25.9234 9.48977 -4.626 0.162633 0.691133 27.9213 -4.93529 -3.73373 -28.4299 0.0 0.0 -0.0 0.0 -0.0 -2.03887 6.13785 9.99724 -12.491 -0.309526 -1.88815 38.2843 22.6559 5.31604 -21.0108 0.0 0.0 0.0 0.0 0.0 
3539.10483804 732.005 -1483.21008467 -2.85319995467 59.761756757 -10.1526311537 1.47668 1.2314 6.11421 1.49707 0.840602 6.17982 1.59059 -0.303746 6.22914 1.53714 0.68191 6.19927 -12.434 9.4516 -8.49018 -12.5438 23.3233 -5.38435 -0.0 0.0 -0.0 -6.78861 23.8779 -6.5412 -2.83007 -28.6103 54.4232 4.10383 -63.7884 2.5545 -10.8504 -0.50613 1.28957 -3.08582 17.0152 -11.9928 -0.0 0.0 -0.0 10.4119 3.2879 -20.6552 -16.7281 33.3433 -73.4915 0.187532 5.30755 -0.0086921 19.625 -0.269072 2.48025 -1.74442 13.0701 17.5588 0.0 0.0 0.0 -6.90966 25.3632 9.63401 -5.64113 0.190815 0.844371 27.5796 -4.88526 -3.69486 -28.4366 0.0 0.0 -0.0 0.0 -0.0 -3.39536 5.98161 10.5335 -12.6548 -0.310833 -1.91324 38.6562 22.561 5.34687 -21.1284 0.0 0.0 0.0 0.0 0.0 
3526.26843242 725.613 -1486.92897698 -1.70795355226 61.4599728228 -11.8887495684 1.32961 1.12313 6.45876 1.35252 0.71076 6.51679 1.43715 -0.511691 6.53536 1.37798 0.524605 6.53434 -13.4581 9.81871 -6.67116 -13.7058 22.8122 -3.28786 -0.0 0.0 -0.0 -8.28777 23.8022 -8.69157 -4.69676 -29.199 55.6891 3.77585 -61.853 2.2627 -9.71302 -0.441697 1.1591 -2.65422 14.2976 -10.7376 -0.0 0.0 -0.0 10.9577 5.31293 -21.891 -14.2547 33.6596 -74.1834 0.228518 6.4586 -0.0128934 20.8032 -0.258021 2.63033 -1.75744 12.2684 17.3075 0.0 0.0 0.0 -2.93211 24.8281 7.99605 -15.483 0.322081 2.34699 33.2542 -3.89148 -4.28627 -30.0473 0.0 0.0 -0.0 0.0 -0.0 -5.73002 5.20243 11.5048 -12.419 -0.308929 -1.87713 39.4196 18.9713 5.25826 -16.0543 0.0 0.0 0.0 0.0 0.0 
3526.92321079 725.613 -1489.27109743 -1.56867831046 58.6556992159 -12.0494290243 1.32961 1.12313 6.45876 1.35252 0.71076 6.51679 1.43715 -0.511691 6.53536 1.37798 0.524605 6.53434 -13.4581 9.81871 -6.67116 -13.7058 22.8122 -3.28786 -0.0 0.0 -0.0 -8.28777 23.8022 -8.69157 -4.69676 -29.199 55.6891 3.77585 -61.853 2.2627 -9.71302 -0.441697 1.1591 -2.65422 14.2976 -10.7376 -0.0 0.0 -0.0 10.9577 5.31293 -21.891 -14.2547 33.6596 -74.1834 0.228518 6.4586 -0.0128934 20.8032 -0.258021 2.63033 -1.75744 12.2684 17.3075 0.0 0.0 0.0 -2.93211 24.8281 7.99605 -15.483 0.322081 2.34699 33.2542 -3.89148 -4.28627 -30.0473 0.0 0.0 -0.0 0.0 -0.0 -5.73002 5.20243 11.5048 -12.419 -0.308929 -1.87713 39.4196 18.9713 5.25826 -16.0543 0.0 0.0 0.0 0.0 0.0 
3503.70961461 725.301 -1489.04257832 -2.88146489057 70.1429450687 -12.3385110046 1.56221 1.26598 6.99123 1.589 0.819677 7.05716 1.69266 -0.472981 7.08868 1.62321 0.649608 7.07475 -16.2508 9.98463 -5.90934 -16.694 22.509 -1.91585 -0.0 0.0 -0.0 -9.15564 23.9899 -9.86816 -6.61816 -30.6891 57.0648 2.44283 -50.4228 1.15023 -10.3281 -0.476219 1.22981 -2.21561 12.1438 -9.0394 -0.0 0.0 -0.0 11.749 10.2746 -23.7105 -5.49296 33.4663 -77.7603 0.232495 6.57002 -0.0133445 22.9875 -0.22938 2.90785 -2.21131 9.60265 19.3651 0.0 0.0 0.0 5.63358 20.8731 7.10927 -22.4497 0.258501 3.4134 35.0081 -2.67755 -4.44487 -32.7162 0.0 0.0 -0.0 0.0 -0.0 -8.77644 4.76665 12.879 -9.10598 -0.266468 -1.37061 39.2553 14.9754 5.09868 -9.32798 0.0 0.0 0.0 0.0 0.0 
3504.12609604 725.301 -1490.96501052 -2.68020682065 68.5825540445 -12.5535492648 1.56221 1.26598 6.99123 1.589 0.819677 7.05716 1.69266 -0.472981 7.08868 1.62321 0.649608 7.07475 -16.2508 9.98463 -5.90934 -16.694 22.509 -1.91585 -0.0 0.0 -0.0 -9.15564 23.9899 -9.86816 -6.61816 -30.6891 57.0648 2.44283 -50.4228 1.15023 -10.3281 -0.476219 1.22981 -2.21561 12.1438 -9.0394 -0.0 0.0 -0.0 11.749 10.2746 -23.7105 -5.49296 33.4663 -77.7603 0.232495 6.57002 -0.0133445 22.9875 -0.22938 2.90785 -2.21131 9.60265 19.3651 0.0 0.0 0.0 5.63358 20.8731 7.10927 -22.4497 0.258501 3.4134 35.0081 -2.67755 -4.44487 -32.7162 0.0 0.0 -0.0 0.0 -0.0 -8.77644 4.76665 12.879 -9.10598 -0.266468 -1.37061 39.2553 14.9754 5.09868 -9.32798 0.0 0.0 0.0 0.0 0.0 
